#define playf_width 32
#define playf_height 32
static char playf_bits[] = {
   0x00, 0x00, 0x00, 0x00, 0x00, 0x00, 0x00, 0x00, 0x00, 0x00, 0x00, 0x00,
   0xe0, 0xe0, 0x00, 0x00, 0xc0, 0xc1, 0x01, 0x00, 0x80, 0x83, 0x03, 0x00,
   0x00, 0x07, 0x07, 0x00, 0x00, 0x0e, 0x0e, 0x00, 0x00, 0x1c, 0x1c, 0x00,
   0x00, 0x38, 0x38, 0x00, 0x00, 0x70, 0x70, 0x00, 0x00, 0xe0, 0xe0, 0x00,
   0x00, 0xc0, 0xc1, 0x01, 0x00, 0x80, 0x83, 0x03, 0x00, 0x00, 0x07, 0x07,
   0x00, 0x00, 0x0e, 0x0e, 0x00, 0x00, 0x0e, 0x0e, 0x00, 0x00, 0x07, 0x07,
   0x00, 0x80, 0x83, 0x03, 0x00, 0xc0, 0xc1, 0x01, 0x00, 0xe0, 0xe0, 0x00,
   0x00, 0x70, 0x70, 0x00, 0x00, 0x38, 0x38, 0x00, 0x00, 0x1c, 0x1c, 0x00,
   0x00, 0x0e, 0x0e, 0x00, 0x00, 0x07, 0x07, 0x00, 0x80, 0x83, 0x03, 0x00,
   0xc0, 0xc1, 0x01, 0x00, 0xe0, 0xe0, 0x00, 0x00, 0x00, 0x00, 0x00, 0x00,
   0x00, 0x00, 0x00, 0x00, 0x00, 0x00, 0x00, 0x00};
